<svg xmlns="http://www.w3.org/2000/svg" width="199" height="31" viewBox="0 0 199 31" fill="none"><path d="M140.957 27.6867C141.159 27.2822 141.415 26.7834 141.725 26.1901C142.049 25.5834 142.379 24.9767 142.716 24.37C143.067 23.7633 143.404 23.1902 143.727 22.6509C144.065 22.1116 144.348 21.7004 144.577 21.4173C144.968 20.9454 145.372 20.6083 145.79 20.4061C146.208 20.2038 146.593 20.1027 146.943 20.1027C147.294 20.1027 147.59 20.1769 147.833 20.3252C148.089 20.4735 148.298 20.6757 148.46 20.9319C148.622 21.1746 148.743 21.4645 148.824 21.8015C148.905 22.1251 148.945 22.4757 148.945 22.8532C148.945 23.0689 148.932 23.352 148.905 23.7026C148.891 24.0531 148.871 24.4307 148.844 24.8351C148.831 25.2396 148.81 25.6576 148.783 26.089C148.77 26.5205 148.756 26.925 148.743 27.3025C148.945 26.898 149.174 26.4531 149.431 25.9677C149.687 25.4688 149.943 24.9767 150.199 24.4913C150.469 24.006 150.725 23.5543 150.968 23.1363C151.21 22.7049 151.433 22.3543 151.635 22.0847C152.215 21.2892 152.754 20.7566 153.253 20.487C153.765 20.2173 154.217 20.0825 154.608 20.0825C155.066 20.0825 155.444 20.1701 155.741 20.3454C156.037 20.5072 156.266 20.7229 156.428 20.9926C156.603 21.2487 156.725 21.5386 156.792 21.8622C156.86 22.1858 156.893 22.4959 156.893 22.7925C156.893 23.2509 156.86 23.7296 156.792 24.2284C156.725 24.7273 156.691 25.3205 156.691 26.0081C156.691 26.2913 156.705 26.5744 156.732 26.8575C156.758 27.1407 156.812 27.3901 156.893 27.6058C156.988 27.8216 157.129 27.9968 157.318 28.1317C157.507 28.2665 157.763 28.3339 158.087 28.3339C158.437 28.3339 158.781 28.2463 159.118 28.071C159.455 27.8822 159.779 27.6395 160.089 27.3429C160.399 27.0463 160.689 26.7092 160.958 26.3317C161.241 25.9542 161.498 25.5767 161.727 25.1992C161.956 24.8217 162.158 24.4644 162.334 24.1273C162.509 23.7767 162.65 23.4801 162.758 23.2374C162.826 23.0891 162.92 22.9745 163.041 22.8936C163.163 22.8127 163.298 22.7723 163.446 22.7723C163.675 22.7723 163.857 22.8599 163.992 23.0352C164.14 23.197 164.214 23.3723 164.214 23.561C164.214 23.6554 164.194 23.7498 164.154 23.8442C164.1 23.952 163.992 24.1812 163.83 24.5318C163.668 24.8688 163.453 25.2598 163.183 25.7048C162.913 26.1362 162.596 26.5946 162.232 27.08C161.882 27.5654 161.491 28.0171 161.059 28.435C160.628 28.8395 160.163 29.1766 159.664 29.4462C159.165 29.7024 158.639 29.8305 158.087 29.8305C157.493 29.8305 157.008 29.7226 156.63 29.5069C156.266 29.3047 155.97 29.0283 155.741 28.6777C155.525 28.3272 155.377 27.9227 155.296 27.4643C155.215 27.0059 155.174 26.5272 155.174 26.0284C155.174 25.3677 155.208 24.761 155.275 24.2082C155.343 23.6419 155.377 23.2037 155.377 22.8936C155.377 22.5566 155.343 22.3004 155.275 22.1251C155.221 21.9498 155.147 21.8285 155.053 21.7611C154.972 21.6802 154.891 21.6397 154.81 21.6397C154.729 21.6263 154.669 21.6195 154.628 21.6195C154.305 21.6195 153.961 21.8015 153.597 22.1656C153.246 22.5161 152.882 22.988 152.505 23.5812C152.127 24.1745 151.736 24.8486 151.332 25.6037C150.941 26.3587 150.543 27.1272 150.138 27.9092C149.909 28.3406 149.714 28.6979 149.552 28.9811C149.404 29.2642 149.255 29.4867 149.107 29.6485C148.972 29.8103 148.837 29.9249 148.703 29.9923C148.568 30.0597 148.419 30.0934 148.258 30.0934C147.907 30.0934 147.637 29.972 147.449 29.7294C147.273 29.4867 147.186 29.1698 147.186 28.7788C147.186 28.5766 147.193 28.3069 147.206 27.9699C147.219 27.6328 147.233 27.262 147.246 26.8575C147.26 26.4531 147.28 26.0351 147.307 25.6037C147.334 25.1722 147.354 24.761 147.368 24.37C147.381 23.9655 147.395 23.6082 147.408 23.2981C147.422 22.988 147.428 22.7521 147.428 22.5903C147.428 22.2397 147.368 21.9903 147.246 21.842C147.125 21.6802 146.984 21.5993 146.822 21.5993C146.673 21.5993 146.505 21.6532 146.316 21.7611C146.141 21.8689 145.932 22.0779 145.689 22.388C145.5 22.6307 145.258 22.988 144.961 23.4599C144.678 23.9183 144.375 24.4307 144.051 24.9969C143.727 25.5632 143.404 26.143 143.08 26.7362C142.77 27.3294 142.501 27.862 142.271 28.3339C141.988 28.9002 141.705 29.2844 141.422 29.4867C141.139 29.7024 140.862 29.8103 140.593 29.8103C140.202 29.8103 139.912 29.6957 139.723 29.4664C139.534 29.2238 139.44 28.9069 139.44 28.5159C139.44 28.4755 139.447 28.2328 139.46 27.7878C139.487 27.3429 139.514 26.8036 139.541 26.1699C139.568 25.5228 139.595 24.8351 139.622 24.1071C139.662 23.379 139.696 22.6981 139.723 22.0644C139.737 21.7274 139.723 21.4173 139.683 21.1341C139.642 20.851 139.588 20.6825 139.521 20.6285C139.413 20.6555 139.197 20.9049 138.874 21.3768C138.564 21.8487 138.166 22.6712 137.68 23.8442C137.613 23.9925 137.512 24.1071 137.377 24.188C137.242 24.2689 137.101 24.3093 136.952 24.3093C136.723 24.3093 136.541 24.2352 136.406 24.0868C136.272 23.9251 136.204 23.743 136.204 23.5408C136.204 23.4464 136.224 23.3453 136.265 23.2374C136.871 21.7948 137.451 20.7364 138.004 20.0623C138.557 19.3746 139.096 19.0308 139.622 19.0308C139.932 19.0308 140.188 19.105 140.39 19.2533C140.606 19.3881 140.775 19.5701 140.896 19.7993C141.017 20.0151 141.105 20.2645 141.159 20.5476C141.213 20.8308 141.24 21.1072 141.24 21.3768C141.24 22.5768 141.206 23.6756 141.139 24.6733C141.085 25.6711 141.024 26.6755 140.957 27.6867Z" fill="white"></path><path d="M166.075 13.6108C166.075 14.1231 165.893 14.5613 165.529 14.9254C165.178 15.2759 164.747 15.4512 164.235 15.4512C163.722 15.4512 163.284 15.2759 162.92 14.9254C162.57 14.5613 162.394 14.1231 162.394 13.6108C162.394 13.3546 162.441 13.1187 162.536 12.9029C162.63 12.6737 162.758 12.4782 162.92 12.3164C163.095 12.1412 163.291 12.0063 163.507 11.912C163.736 11.8176 163.978 11.7704 164.235 11.7704C164.491 11.7704 164.727 11.8176 164.942 11.912C165.172 12.0063 165.367 12.1412 165.529 12.3164C165.704 12.4782 165.839 12.6737 165.933 12.9029C166.028 13.1187 166.075 13.3546 166.075 13.6108ZM162.799 25.4621C162.799 23.5206 162.92 21.5858 163.163 19.6578C163.19 19.469 163.271 19.3072 163.405 19.1724C163.554 19.0241 163.743 18.9499 163.972 18.9499C164.174 18.9499 164.342 19.0308 164.477 19.1926C164.612 19.3409 164.68 19.5162 164.68 19.7185C164.68 19.7993 164.659 20.042 164.619 20.4465C164.592 20.851 164.551 21.3364 164.498 21.9026C164.457 22.4554 164.417 23.0487 164.376 23.6824C164.349 24.3026 164.336 24.8756 164.336 25.4014C164.336 26.116 164.403 26.6957 164.538 27.1407C164.686 27.5721 164.868 27.9092 165.084 28.1519C165.313 28.3946 165.549 28.5564 165.792 28.6373C166.048 28.7182 166.291 28.7586 166.52 28.7586C166.897 28.7586 167.288 28.6238 167.693 28.3541C168.097 28.0845 168.509 27.707 168.927 27.2216C169.358 26.7362 169.79 26.1564 170.221 25.4823C170.652 24.7947 171.077 24.0329 171.495 23.197C171.562 23.0622 171.657 22.961 171.778 22.8936C171.9 22.8127 172.034 22.7723 172.183 22.7723C172.398 22.7723 172.574 22.8532 172.709 23.015C172.857 23.1768 172.931 23.352 172.931 23.5408C172.931 23.6756 172.904 23.7902 172.85 23.8846C172.688 24.1947 172.486 24.5722 172.243 25.0172C172.001 25.4621 171.724 25.9205 171.414 26.3924C171.104 26.8643 170.76 27.3362 170.383 27.8081C170.019 28.2665 169.628 28.6844 169.21 29.062C168.792 29.426 168.354 29.7226 167.895 29.9518C167.437 30.181 166.972 30.2956 166.5 30.2956C165.893 30.2956 165.36 30.1675 164.902 29.9114C164.444 29.6552 164.053 29.3114 163.729 28.8799C163.419 28.4485 163.183 27.9429 163.021 27.3631C162.873 26.7699 162.799 26.1362 162.799 25.4621ZM164.942 13.6108C164.942 13.422 164.868 13.2602 164.72 13.1254C164.585 12.9771 164.423 12.9029 164.235 12.9029C164.046 12.9029 163.884 12.9771 163.749 13.1254C163.614 13.2602 163.547 13.422 163.547 13.6108C163.547 13.7995 163.614 13.9613 163.749 14.0962C163.884 14.231 164.046 14.2984 164.235 14.2984C164.423 14.2984 164.585 14.231 164.72 14.0962C164.868 13.9613 164.942 13.7995 164.942 13.6108Z" fill="white"></path><path d="M173.72 22.0038C173.639 22.2195 173.538 22.4622 173.416 22.7318C173.308 23.0015 173.18 23.2846 173.032 23.5812C172.911 23.8105 172.783 23.9925 172.648 24.1273C172.526 24.2486 172.365 24.3093 172.162 24.3093C171.933 24.3093 171.751 24.2419 171.616 24.1071C171.482 23.9588 171.414 23.7902 171.414 23.6015C171.414 23.5341 171.421 23.4801 171.434 23.4397C171.448 23.3857 171.482 23.3048 171.536 23.197C171.886 22.5229 172.142 21.9364 172.304 21.4375C172.479 20.9252 172.621 20.3926 172.729 19.8398C172.634 19.5297 172.567 19.2668 172.526 19.0511C172.486 18.8353 172.466 18.6129 172.466 18.3837C172.466 17.9387 172.56 17.5814 172.749 17.3118C172.938 17.0287 173.201 16.8871 173.538 16.8871C173.848 16.8871 174.09 17.0219 174.266 17.2916C174.455 17.5612 174.549 17.8915 174.549 18.2825C174.549 18.4983 174.529 18.714 174.488 18.9297C174.448 19.1454 174.394 19.4151 174.326 19.7387C174.637 20.5072 174.947 21.1881 175.257 21.7813C175.567 22.3745 175.843 22.9206 176.086 23.4195C176.329 23.9048 176.524 24.3632 176.672 24.7947C176.834 25.2261 176.915 25.6576 176.915 26.089C176.915 26.6553 176.801 27.1946 176.571 27.707C176.342 28.2193 175.965 28.6507 175.439 29.0013C175.506 29.0148 175.574 29.0215 175.641 29.0215C175.708 29.0215 175.776 29.0215 175.843 29.0215C176.612 29.0215 177.32 28.8462 177.967 28.4957C178.614 28.1451 179.194 27.6935 179.706 27.1407C180.232 26.5744 180.697 25.9542 181.101 25.2801C181.506 24.5924 181.857 23.9116 182.153 23.2374C182.288 22.9273 182.477 22.7723 182.719 22.7723C182.949 22.7723 183.124 22.8532 183.245 23.015C183.38 23.1768 183.447 23.352 183.447 23.5408C183.447 23.6487 183.427 23.7498 183.387 23.8442C183.239 24.2082 183.043 24.6262 182.8 25.098C182.571 25.5565 182.288 26.0351 181.951 26.534C181.627 27.0193 181.25 27.498 180.818 27.9699C180.387 28.4418 179.902 28.8665 179.362 29.244C178.836 29.608 178.257 29.8979 177.623 30.1136C176.989 30.3428 176.295 30.4574 175.54 30.4574C174.637 30.4574 173.794 30.2956 173.012 29.972C172.243 29.6619 171.616 29.1429 171.131 28.4148C171.05 28.2934 171.01 28.1654 171.01 28.0305C171.01 27.8283 171.084 27.653 171.232 27.5047C171.394 27.3429 171.576 27.262 171.778 27.262C171.994 27.262 172.176 27.3362 172.324 27.4845C172.338 27.5115 172.385 27.5586 172.466 27.6261C172.547 27.68 172.641 27.7474 172.749 27.8283C172.87 27.8957 173.005 27.9564 173.153 28.0103C173.315 28.0642 173.477 28.0912 173.639 28.0912C173.962 28.0912 174.232 28.0238 174.448 27.889C174.677 27.7541 174.859 27.5924 174.994 27.4036C175.129 27.2014 175.223 26.9924 175.277 26.7766C175.344 26.5474 175.378 26.3519 175.378 26.1901C175.378 25.8531 175.324 25.516 175.216 25.1789C175.108 24.8419 174.967 24.5048 174.792 24.1677C174.63 23.8307 174.448 23.4869 174.246 23.1363C174.057 22.7723 173.882 22.3948 173.72 22.0038Z" fill="white"></path><path d="M183.589 27.7676C183.805 27.3092 184.054 26.8171 184.337 26.2913C184.62 25.752 184.924 25.2059 185.247 24.6531C185.571 24.0868 185.915 23.5273 186.279 22.9745C186.643 22.4217 187.02 21.9026 187.411 21.4173C187.802 20.9454 188.193 20.6083 188.584 20.4061C188.989 20.1903 189.366 20.0825 189.717 20.0825C190.067 20.0825 190.371 20.1566 190.627 20.3049C190.897 20.4398 191.112 20.6285 191.274 20.8712C191.449 21.1139 191.578 21.397 191.658 21.7206C191.753 22.0442 191.8 22.3948 191.8 22.7723C191.8 23.0824 191.766 23.5003 191.699 24.0262C191.645 24.5385 191.618 25.0778 191.618 25.6441C191.618 25.9677 191.631 26.2913 191.658 26.6149C191.699 26.925 191.76 27.2081 191.84 27.4643C191.935 27.707 192.07 27.9092 192.245 28.071C192.42 28.2193 192.649 28.2934 192.933 28.2934C193.256 28.2934 193.58 28.2058 193.903 28.0305C194.227 27.8418 194.544 27.5991 194.854 27.3025C195.164 26.9924 195.461 26.6553 195.744 26.2913C196.027 25.9138 196.283 25.543 196.512 25.1789C196.741 24.8014 196.944 24.4441 197.119 24.1071C197.294 23.7565 197.436 23.4666 197.544 23.2374C197.678 22.9273 197.914 22.7723 198.251 22.7723C198.481 22.7723 198.663 22.8532 198.798 23.015C198.932 23.1768 199 23.352 199 23.5408C199 23.6487 198.98 23.7498 198.939 23.8442C198.885 23.952 198.777 24.1745 198.616 24.5116C198.467 24.8486 198.258 25.2396 197.989 25.6845C197.732 26.1295 197.429 26.5946 197.078 27.08C196.728 27.5654 196.337 28.0171 195.906 28.435C195.488 28.8395 195.029 29.1766 194.53 29.4462C194.045 29.7024 193.533 29.8305 192.993 29.8305C192.373 29.8305 191.874 29.7024 191.497 29.4462C191.119 29.1766 190.823 28.8395 190.607 28.435C190.405 28.0305 190.263 27.5789 190.182 27.08C190.115 26.5811 190.081 26.0958 190.081 25.6239C190.081 25.3812 190.088 25.125 190.101 24.8554C190.128 24.5722 190.155 24.2958 190.182 24.0262C190.209 23.7565 190.229 23.5071 190.243 23.2779C190.27 23.0352 190.283 22.833 190.283 22.6712C190.283 22.2532 190.223 21.9701 190.101 21.8218C189.993 21.6734 189.865 21.5993 189.717 21.5993C189.501 21.5993 189.252 21.7274 188.969 21.9835C188.699 22.2262 188.409 22.5498 188.099 22.9543C187.802 23.3588 187.499 23.8172 187.189 24.3295C186.892 24.8284 186.602 25.3273 186.319 25.8261C186.036 26.325 185.78 26.8036 185.551 27.262C185.322 27.707 185.133 28.0777 184.985 28.3743C184.701 28.9406 184.411 29.3181 184.115 29.5069C183.832 29.7091 183.576 29.8103 183.346 29.8103C182.928 29.8103 182.605 29.6485 182.376 29.3249C182.16 28.9878 182.052 28.5833 182.052 28.1114V26.8373C182.052 24.2891 182.052 21.8622 182.052 19.5567C182.066 17.2376 182.099 15.0871 182.153 13.1052C182.221 11.1097 182.322 9.30981 182.457 7.70536C182.605 6.08744 182.821 4.7122 183.104 3.57966C183.387 2.43363 183.744 1.55051 184.176 0.930306C184.62 0.310102 185.173 0 185.834 0C186.4 0 186.879 0.155051 187.27 0.465153C187.661 0.775255 187.978 1.19996 188.22 1.73927C188.463 2.26509 188.638 2.8853 188.746 3.59988C188.854 4.30098 188.908 5.04253 188.908 5.82453C188.908 7.41549 188.76 8.97948 188.463 10.5165C188.18 12.0401 187.796 13.5299 187.31 14.986C186.825 16.4422 186.259 17.8646 185.611 19.2533C184.964 20.6285 184.283 21.9701 183.569 23.2779C183.569 23.5206 183.569 23.8105 183.569 24.1475C183.569 24.4846 183.569 24.8217 183.569 25.1587C183.569 25.4958 183.569 25.8126 183.569 26.1093C183.569 26.4059 183.569 26.6418 183.569 26.8171L183.589 27.7676ZM183.589 20.3049C184.155 19.0645 184.668 17.8578 185.126 16.6848C185.598 15.4984 185.996 14.3186 186.319 13.1456C186.656 11.9726 186.919 10.7862 187.108 9.5862C187.297 8.37276 187.391 7.11213 187.391 5.8043C187.391 5.58858 187.378 5.24477 187.351 4.77288C187.337 4.30098 187.277 3.82235 187.169 3.33697C187.074 2.85159 186.919 2.42689 186.704 2.06285C186.501 1.69882 186.211 1.5168 185.834 1.5168C185.537 1.5168 185.281 1.71904 185.065 2.12353C184.85 2.51452 184.661 3.05383 184.499 3.74145C184.337 4.41559 184.203 5.20432 184.095 6.10766C183.987 7.011 183.899 7.96828 183.832 8.97948C183.764 9.99068 183.71 11.0288 183.67 12.094C183.643 13.1591 183.623 14.1973 183.609 15.2085C183.596 16.2062 183.589 17.1433 183.589 18.0196C183.589 18.896 183.589 19.6578 183.589 20.3049Z" fill="white"></path><path d="M4.75265 27.6867C4.95489 27.2822 5.21106 26.7834 5.52117 26.1901C5.84475 25.5834 6.17508 24.9767 6.51214 24.37C6.86269 23.7633 7.19976 23.1902 7.52335 22.6509C7.86041 22.1116 8.14355 21.7004 8.37276 21.4173C8.76376 20.9454 9.16824 20.6083 9.5862 20.4061C10.0042 20.2038 10.3884 20.1027 10.739 20.1027C11.0895 20.1027 11.3861 20.1769 11.6288 20.3252C11.885 20.4735 12.094 20.6757 12.2558 20.9319C12.4176 21.1746 12.5389 21.4645 12.6198 21.8015C12.7007 22.1251 12.7412 22.4757 12.7412 22.8532C12.7412 23.0689 12.7277 23.352 12.7007 23.7026C12.6872 24.0531 12.667 24.4307 12.64 24.8351C12.6265 25.2396 12.6063 25.6576 12.5794 26.089C12.5659 26.5205 12.5524 26.925 12.5389 27.3025C12.7412 26.898 12.9704 26.4531 13.2265 25.9677C13.4827 25.4688 13.7389 24.9767 13.995 24.4913C14.2647 24.006 14.5209 23.5543 14.7636 23.1363C15.0062 22.7049 15.2287 22.3543 15.431 22.0847C16.0107 21.2892 16.55 20.7566 17.0489 20.487C17.5612 20.2173 18.0129 20.0825 18.4039 20.0825C18.8623 20.0825 19.2398 20.1701 19.5364 20.3454C19.8331 20.5072 20.0623 20.7229 20.2241 20.9926C20.3993 21.2487 20.5207 21.5386 20.5881 21.8622C20.6555 22.1858 20.6892 22.4959 20.6892 22.7925C20.6892 23.2509 20.6555 23.7296 20.5881 24.2284C20.5207 24.7273 20.487 25.3205 20.487 26.0081C20.487 26.2913 20.5004 26.5744 20.5274 26.8575C20.5544 27.1407 20.6083 27.3901 20.6892 27.6058C20.7836 27.8216 20.9252 27.9968 21.1139 28.1317C21.3027 28.2665 21.5588 28.3339 21.8824 28.3339C22.233 28.3339 22.5768 28.2463 22.9139 28.071C23.2509 27.8822 23.5745 27.6395 23.8846 27.3429C24.1947 27.0463 24.4846 26.7092 24.7542 26.3317C25.0374 25.9542 25.2935 25.5767 25.5228 25.1992C25.752 24.8217 25.9542 24.4644 26.1295 24.1273C26.3047 23.7767 26.4463 23.4801 26.5542 23.2374C26.6216 23.0891 26.716 22.9745 26.8373 22.8936C26.9587 22.8127 27.0935 22.7723 27.2418 22.7723C27.471 22.7723 27.653 22.8599 27.7878 23.0352C27.9362 23.197 28.0103 23.3723 28.0103 23.561C28.0103 23.6554 27.9901 23.7498 27.9496 23.8442C27.8957 23.952 27.7878 24.1812 27.6261 24.5318C27.4643 24.8688 27.2485 25.2598 26.9789 25.7048C26.7092 26.1362 26.3924 26.5946 26.0284 27.08C25.6778 27.5654 25.2868 28.0171 24.8554 28.435C24.4239 28.8395 23.9588 29.1766 23.4599 29.4462C22.961 29.7024 22.4352 29.8305 21.8824 29.8305C21.2892 29.8305 20.8038 29.7226 20.4263 29.5069C20.0623 29.3047 19.7656 29.0283 19.5364 28.6777C19.3207 28.3272 19.1724 27.9227 19.0915 27.4643C19.0106 27.0059 18.9702 26.5272 18.9702 26.0284C18.9702 25.3677 19.0039 24.761 19.0713 24.2082C19.1387 23.6419 19.1724 23.2037 19.1724 22.8936C19.1724 22.5566 19.1387 22.3004 19.0713 22.1251C19.0173 21.9498 18.9432 21.8285 18.8488 21.7611C18.7679 21.6802 18.687 21.6397 18.6061 21.6397C18.5252 21.6263 18.4646 21.6195 18.4241 21.6195C18.1005 21.6195 17.7567 21.8015 17.3927 22.1656C17.0421 22.5161 16.6781 22.988 16.3006 23.5812C15.9231 24.1745 15.5321 24.8486 15.1276 25.6037C14.7366 26.3587 14.3389 27.1272 13.9344 27.9092C13.7052 28.3406 13.5097 28.6979 13.3479 28.9811C13.1996 29.2642 13.0513 29.4867 12.9029 29.6485C12.7681 29.8103 12.6333 29.9249 12.4985 29.9923C12.3636 30.0597 12.2153 30.0934 12.0535 30.0934C11.703 30.0934 11.4333 29.972 11.2446 29.7294C11.0693 29.4867 10.9817 29.1698 10.9817 28.7788C10.9817 28.5766 10.9884 28.3069 11.0019 27.9699C11.0154 27.6328 11.0288 27.262 11.0423 26.8575C11.0558 26.4531 11.076 26.0351 11.103 25.6037C11.13 25.1722 11.1502 24.761 11.1637 24.37C11.1772 23.9655 11.1906 23.6082 11.2041 23.2981C11.2176 22.988 11.2243 22.7521 11.2243 22.5903C11.2243 22.2397 11.1637 21.9903 11.0423 21.842C10.921 21.6802 10.7794 21.5993 10.6176 21.5993C10.4693 21.5993 10.3008 21.6532 10.112 21.7611C9.93675 21.8689 9.72777 22.0779 9.48508 22.388C9.29632 22.6307 9.05363 22.988 8.75701 23.4599C8.47388 23.9183 8.17052 24.4307 7.84693 24.9969C7.52335 25.5632 7.19976 26.143 6.87618 26.7362C6.56608 27.3294 6.29642 27.862 6.06722 28.3339C5.78408 28.9002 5.50094 29.2844 5.21781 29.4867C4.93467 29.7024 4.65827 29.8103 4.38862 29.8103C3.99762 29.8103 3.70774 29.6957 3.51898 29.4664C3.33023 29.2238 3.23585 28.9069 3.23585 28.5159C3.23585 28.4755 3.24259 28.2328 3.25607 27.7878C3.28304 27.3429 3.31 26.8036 3.33697 26.1699C3.36393 25.5228 3.3909 24.8351 3.41786 24.1071C3.45831 23.379 3.49202 22.6981 3.51898 22.0644C3.53247 21.7274 3.51898 21.4173 3.47854 21.1341C3.43809 20.851 3.38416 20.6825 3.31674 20.6285C3.20888 20.6555 2.99316 20.9049 2.66957 21.3768C2.35947 21.8487 1.96173 22.6712 1.47636 23.8442C1.40894 23.9925 1.30782 24.1071 1.17299 24.188C1.03817 24.2689 0.8966 24.3093 0.74829 24.3093C0.519084 24.3093 0.337068 24.2352 0.202241 24.0868C0.0674135 23.9251 0 23.743 0 23.5408C0 23.4464 0.0202241 23.3453 0.0606722 23.2374C0.667394 21.7948 1.24715 20.7364 1.79994 20.0623C2.35273 19.3746 2.89204 19.0308 3.41786 19.0308C3.72797 19.0308 3.98414 19.105 4.18638 19.2533C4.4021 19.3881 4.57064 19.5701 4.69198 19.7993C4.81332 20.0151 4.90096 20.2645 4.95489 20.5476C5.00882 20.8308 5.03579 21.1072 5.03579 21.3768C5.03579 22.5768 5.00208 23.6756 4.93467 24.6733C4.88074 25.6711 4.82007 26.6755 4.75265 27.6867Z" fill="white"></path><path d="M29.8709 13.6108C29.8709 14.1231 29.6889 14.5613 29.3249 14.9254C28.9743 15.2759 28.5429 15.4512 28.0305 15.4512C27.5182 15.4512 27.08 15.2759 26.716 14.9254C26.3654 14.5613 26.1901 14.1231 26.1901 13.6108C26.1901 13.3546 26.2373 13.1187 26.3317 12.9029C26.4261 12.6737 26.5542 12.4782 26.716 12.3164C26.8912 12.1412 27.0867 12.0063 27.3025 11.912C27.5317 11.8176 27.7744 11.7704 28.0305 11.7704C28.2867 11.7704 28.5227 11.8176 28.7384 11.912C28.9676 12.0063 29.1631 12.1412 29.3249 12.3164C29.5001 12.4782 29.635 12.6737 29.7294 12.9029C29.8237 13.1187 29.8709 13.3546 29.8709 13.6108ZM26.5946 25.4621C26.5946 23.5206 26.716 21.5858 26.9587 19.6578C26.9856 19.469 27.0665 19.3072 27.2013 19.1724C27.3497 19.0241 27.5384 18.9499 27.7676 18.9499C27.9699 18.9499 28.1384 19.0308 28.2732 19.1926C28.4081 19.3409 28.4755 19.5162 28.4755 19.7185C28.4755 19.7993 28.4552 20.042 28.4148 20.4465C28.3878 20.851 28.3474 21.3364 28.2934 21.9026C28.253 22.4554 28.2126 23.0487 28.1721 23.6824C28.1451 24.3026 28.1317 24.8756 28.1317 25.4014C28.1317 26.116 28.1991 26.6957 28.3339 27.1407C28.4822 27.5721 28.6642 27.9092 28.8799 28.1519C29.1092 28.3946 29.3451 28.5564 29.5878 28.6373C29.844 28.7182 30.0866 28.7586 30.3159 28.7586C30.6934 28.7586 31.0844 28.6238 31.4888 28.3541C31.8933 28.0845 32.3046 27.707 32.7225 27.2216C33.154 26.7362 33.5854 26.1564 34.0169 25.4823C34.4483 24.7947 34.873 24.0329 35.291 23.197C35.3584 23.0622 35.4528 22.961 35.5741 22.8936C35.6954 22.8127 35.8303 22.7723 35.9786 22.7723C36.1943 22.7723 36.3696 22.8532 36.5044 23.015C36.6527 23.1768 36.7269 23.352 36.7269 23.5408C36.7269 23.6756 36.6999 23.7902 36.646 23.8846C36.4842 24.1947 36.2819 24.5722 36.0393 25.0172C35.7966 25.4621 35.5202 25.9205 35.2101 26.3924C34.9 26.8643 34.5562 27.3362 34.1786 27.8081C33.8146 28.2665 33.4236 28.6844 33.0057 29.062C32.5877 29.426 32.1495 29.7226 31.6911 29.9518C31.2327 30.181 30.7675 30.2956 30.2956 30.2956C29.6889 30.2956 29.1563 30.1675 28.6979 29.9114C28.2395 29.6552 27.8485 29.3114 27.5249 28.8799C27.2148 28.4485 26.9789 27.9429 26.8171 27.3631C26.6688 26.7699 26.5946 26.1362 26.5946 25.4621ZM28.7384 13.6108C28.7384 13.422 28.6642 13.2602 28.5159 13.1254C28.3811 12.9771 28.2193 12.9029 28.0305 12.9029C27.8418 12.9029 27.68 12.9771 27.5452 13.1254C27.4103 13.2602 27.3429 13.422 27.3429 13.6108C27.3429 13.7995 27.4103 13.9613 27.5452 14.0962C27.68 14.231 27.8418 14.2984 28.0305 14.2984C28.2193 14.2984 28.3811 14.231 28.5159 14.0962C28.6642 13.9613 28.7384 13.7995 28.7384 13.6108Z" fill="white"></path><path d="M37.5156 22.0038C37.4347 22.2195 37.3336 22.4622 37.2123 22.7318C37.1044 23.0015 36.9763 23.2846 36.828 23.5812C36.7067 23.8105 36.5786 23.9925 36.4437 24.1273C36.3224 24.2486 36.1606 24.3093 35.9584 24.3093C35.7292 24.3093 35.5471 24.2419 35.4123 24.1071C35.2775 23.9588 35.2101 23.7902 35.2101 23.6015C35.2101 23.5341 35.2168 23.4801 35.2303 23.4397C35.2438 23.3857 35.2775 23.3048 35.3314 23.197C35.682 22.5229 35.9381 21.9364 36.0999 21.4375C36.2752 20.9252 36.4168 20.3926 36.5246 19.8398C36.4303 19.5297 36.3628 19.2668 36.3224 19.0511C36.2819 18.8353 36.2617 18.6129 36.2617 18.3837C36.2617 17.9387 36.3561 17.5814 36.5449 17.3118C36.7336 17.0287 36.9965 16.8871 37.3336 16.8871C37.6437 16.8871 37.8864 17.0219 38.0617 17.2916C38.2504 17.5612 38.3448 17.8915 38.3448 18.2825C38.3448 18.4983 38.3246 18.714 38.2841 18.9297C38.2437 19.1454 38.1898 19.4151 38.1223 19.7387C38.4324 20.5072 38.7425 21.1881 39.0526 21.7813C39.3627 22.3745 39.6391 22.9206 39.8818 23.4195C40.1245 23.9048 40.32 24.3632 40.4683 24.7947C40.6301 25.2261 40.711 25.6576 40.711 26.089C40.711 26.6553 40.5964 27.1946 40.3672 27.707C40.138 28.2193 39.7605 28.6507 39.2347 29.0013C39.3021 29.0148 39.3695 29.0215 39.4369 29.0215C39.5043 29.0215 39.5717 29.0215 39.6391 29.0215C40.4077 29.0215 41.1155 28.8462 41.7627 28.4957C42.4098 28.1451 42.9896 27.6935 43.5019 27.1407C44.0278 26.5744 44.4929 25.9542 44.8974 25.2801C45.3019 24.5924 45.6524 23.9116 45.949 23.2374C46.0839 22.9273 46.2726 22.7723 46.5153 22.7723C46.7445 22.7723 46.9198 22.8532 47.0411 23.015C47.176 23.1768 47.2434 23.352 47.2434 23.5408C47.2434 23.6487 47.2232 23.7498 47.1827 23.8442C47.0344 24.2082 46.8389 24.6262 46.5962 25.098C46.367 25.5565 46.0839 26.0351 45.7468 26.534C45.4232 27.0193 45.0457 27.498 44.6143 27.9699C44.1828 28.4418 43.6974 28.8665 43.1581 29.244C42.6323 29.608 42.0525 29.8979 41.4189 30.1136C40.7852 30.3428 40.0908 30.4574 39.3358 30.4574C38.4324 30.4574 37.5898 30.2956 36.8078 29.972C36.0393 29.6619 35.4123 29.1429 34.9269 28.4148C34.846 28.2934 34.8056 28.1654 34.8056 28.0305C34.8056 27.8283 34.8797 27.653 35.0281 27.5047C35.1898 27.3429 35.3719 27.262 35.5741 27.262C35.7898 27.262 35.9718 27.3362 36.1202 27.4845C36.1336 27.5115 36.1808 27.5586 36.2617 27.6261C36.3426 27.68 36.437 27.7474 36.5449 27.8283C36.6662 27.8957 36.801 27.9564 36.9493 28.0103C37.1111 28.0642 37.2729 28.0912 37.4347 28.0912C37.7583 28.0912 38.028 28.0238 38.2437 27.889C38.4729 27.7541 38.6549 27.5924 38.7897 27.4036C38.9246 27.2014 39.0189 26.9924 39.0729 26.7766C39.1403 26.5474 39.174 26.3519 39.174 26.1901C39.174 25.8531 39.1201 25.516 39.0122 25.1789C38.9043 24.8419 38.7628 24.5048 38.5875 24.1677C38.4257 23.8307 38.2437 23.4869 38.0414 23.1363C37.8527 22.7723 37.6774 22.3948 37.5156 22.0038Z" fill="white"></path><path d="M47.385 27.7676C47.6007 27.3092 47.8501 26.8171 48.1332 26.2913C48.4164 25.752 48.7197 25.2059 49.0433 24.6531C49.3669 24.0868 49.7107 23.5273 50.0747 22.9745C50.4388 22.4217 50.8163 21.9026 51.2073 21.4173C51.5983 20.9454 51.9893 20.6083 52.3803 20.4061C52.7848 20.1903 53.1623 20.0825 53.5128 20.0825C53.8634 20.0825 54.1668 20.1566 54.4229 20.3049C54.6926 20.4398 54.9083 20.6285 55.0701 20.8712C55.2454 21.1139 55.3735 21.397 55.4543 21.7206C55.5487 22.0442 55.5959 22.3948 55.5959 22.7723C55.5959 23.0824 55.5622 23.5003 55.4948 24.0262C55.4409 24.5385 55.4139 25.0778 55.4139 25.6441C55.4139 25.9677 55.4274 26.2913 55.4543 26.6149C55.4948 26.925 55.5555 27.2081 55.6364 27.4643C55.7307 27.707 55.8656 27.9092 56.0408 28.071C56.2161 28.2193 56.4453 28.2934 56.7285 28.2934C57.052 28.2934 57.3756 28.2058 57.6992 28.0305C58.0228 27.8418 58.3396 27.5991 58.6497 27.3025C58.9599 26.9924 59.2565 26.6553 59.5396 26.2913C59.8227 25.9138 60.0789 25.543 60.3081 25.1789C60.5373 24.8014 60.7396 24.4441 60.9148 24.1071C61.0901 23.7565 61.2317 23.4666 61.3395 23.2374C61.4744 22.9273 61.7103 22.7723 62.0474 22.7723C62.2766 22.7723 62.4586 22.8532 62.5934 23.015C62.7283 23.1768 62.7957 23.352 62.7957 23.5408C62.7957 23.6487 62.7755 23.7498 62.735 23.8442C62.6811 23.952 62.5732 24.1745 62.4114 24.5116C62.2631 24.8486 62.0541 25.2396 61.7845 25.6845C61.5283 26.1295 61.2249 26.5946 60.8744 27.08C60.5238 27.5654 60.1328 28.0171 59.7014 28.435C59.2834 28.8395 58.825 29.1766 58.3262 29.4462C57.8408 29.7024 57.3284 29.8305 56.7891 29.8305C56.1689 29.8305 55.6701 29.7024 55.2926 29.4462C54.915 29.1766 54.6184 28.8395 54.4027 28.435C54.2005 28.0305 54.0589 27.5789 53.978 27.08C53.9106 26.5811 53.8769 26.0958 53.8769 25.6239C53.8769 25.3812 53.8836 25.125 53.8971 24.8554C53.9241 24.5722 53.951 24.2958 53.978 24.0262C54.005 23.7565 54.0252 23.5071 54.0387 23.2779C54.0656 23.0352 54.0791 22.833 54.0791 22.6712C54.0791 22.2532 54.0184 21.9701 53.8971 21.8218C53.7892 21.6734 53.6611 21.5993 53.5128 21.5993C53.2971 21.5993 53.0477 21.7274 52.7645 21.9835C52.4949 22.2262 52.205 22.5498 51.8949 22.9543C51.5983 23.3588 51.2949 23.8172 50.9848 24.3295C50.6882 24.8284 50.3983 25.3273 50.1152 25.8261C49.8321 26.325 49.5759 26.8036 49.3467 27.262C49.1175 27.707 48.9287 28.0777 48.7804 28.3743C48.4973 28.9406 48.2074 29.3181 47.9108 29.5069C47.6276 29.7091 47.3715 29.8103 47.1423 29.8103C46.7243 29.8103 46.4007 29.6485 46.1715 29.3249C45.9558 28.9878 45.8479 28.5833 45.8479 28.1114L45.8479 26.8373C45.8479 24.2891 45.8479 21.8622 45.8479 19.5567C45.8614 17.2376 45.8951 15.0871 45.949 13.1052C46.0165 11.1097 46.1176 9.30981 46.2524 7.70536C46.4007 6.08744 46.6164 4.7122 46.8996 3.57966C47.1827 2.43363 47.54 1.55051 47.9715 0.930306C48.4164 0.310102 48.9692 0 49.6298 0C50.1961 0 50.6747 0.155051 51.0657 0.465153C51.4567 0.775255 51.7736 1.19996 52.0163 1.73927C52.2589 2.26509 52.4342 2.8853 52.5421 3.59988C52.6499 4.30098 52.7039 5.04253 52.7039 5.82453C52.7039 7.41549 52.5556 8.97948 52.2589 10.5165C51.9758 12.0401 51.5916 13.5299 51.1062 14.986C50.6208 16.4422 50.0545 17.8646 49.4074 19.2533C48.7602 20.6285 48.0793 21.9701 47.3647 23.2779C47.3647 23.5206 47.3647 23.8105 47.3647 24.1475C47.3647 24.4846 47.3647 24.8217 47.3647 25.1587C47.3647 25.4958 47.3647 25.8126 47.3647 26.1093C47.3647 26.4059 47.3647 26.6418 47.3647 26.8171L47.385 27.7676ZM47.385 20.3049C47.9512 19.0645 48.4636 17.8578 48.922 16.6848C49.3939 15.4984 49.7916 14.3186 50.1152 13.1456C50.4523 11.9726 50.7152 10.7862 50.9039 9.5862C51.0927 8.37276 51.1871 7.11213 51.1871 5.8043C51.1871 5.58858 51.1736 5.24477 51.1466 4.77288C51.1331 4.30098 51.0725 3.82235 50.9646 3.33697C50.8702 2.85159 50.7152 2.42689 50.4995 2.06285C50.2972 1.69882 50.0073 1.5168 49.6298 1.5168C49.3332 1.5168 49.077 1.71904 48.8613 2.12353C48.6456 2.51452 48.4568 3.05383 48.295 3.74145C48.1332 4.41559 47.9984 5.20432 47.8906 6.10766C47.7827 7.011 47.6951 7.96828 47.6276 8.97948C47.5602 9.99068 47.5063 11.0288 47.4658 12.094C47.4389 13.1591 47.4187 14.1973 47.4052 15.2085C47.3917 16.2062 47.385 17.1433 47.385 18.0196C47.385 18.896 47.385 19.6578 47.385 20.3049Z" fill="white"></path><path d="M108.875 11.3828C112.355 11.3828 115.177 14.4775 115.177 18.2949H102.572C102.572 14.4775 105.394 11.3828 108.875 11.3828Z" fill="white"></path><path d="M97.0839 0.808594C103.484 0.808594 108.672 5.6951 108.672 11.7229V30.8967H85.4959V11.7229C85.4959 5.6951 90.684 0.808594 97.0839 0.808594Z" fill="#CEC7C0"></path><circle r="4.06596" transform="matrix(-1 0 0 1 100.946 9.34721)" fill="#AD5207"></circle><circle r="2.43958" transform="matrix(-1 0 0 1 100.946 9.34973)" fill="black"></circle><rect x="85.4951" y="27.2383" width="23.176" height="3.65937" fill="white"></rect></svg>