<svg xmlns="http://www.w3.org/2000/svg" width="250" height="39" viewBox="0 0 250 39" fill="none"><path d="M176.967 34.7598C177.221 34.252 177.542 33.6257 177.932 32.8809C178.338 32.1191 178.753 31.3574 179.176 30.5957C179.616 29.834 180.039 29.1146 180.445 28.4375C180.868 27.7604 181.224 27.2441 181.512 26.8887C182.003 26.2962 182.51 25.873 183.035 25.6191C183.56 25.3652 184.042 25.2383 184.482 25.2383C184.923 25.2383 185.295 25.3314 185.6 25.5176C185.921 25.7038 186.184 25.9577 186.387 26.2793C186.59 26.584 186.742 26.9479 186.844 27.3711C186.945 27.7773 186.996 28.2174 186.996 28.6914C186.996 28.9622 186.979 29.3177 186.945 29.7578C186.928 30.1979 186.903 30.6719 186.869 31.1797C186.852 31.6875 186.827 32.2122 186.793 32.7539C186.776 33.2956 186.759 33.8034 186.742 34.2773C186.996 33.7695 187.284 33.2109 187.605 32.6016C187.927 31.9753 188.249 31.3574 188.57 30.748C188.909 30.1387 189.23 29.5716 189.535 29.0469C189.84 28.5052 190.119 28.0651 190.373 27.7266C191.101 26.7279 191.778 26.0592 192.404 25.7207C193.048 25.3822 193.615 25.2129 194.105 25.2129C194.681 25.2129 195.155 25.3229 195.527 25.543C195.9 25.7461 196.187 26.0169 196.391 26.3555C196.611 26.6771 196.763 27.041 196.848 27.4473C196.932 27.8535 196.975 28.2428 196.975 28.6152C196.975 29.1908 196.932 29.7917 196.848 30.418C196.763 31.0443 196.721 31.7891 196.721 32.6523C196.721 33.0078 196.738 33.3633 196.771 33.7188C196.805 34.0742 196.873 34.3874 196.975 34.6582C197.093 34.929 197.271 35.1491 197.508 35.3184C197.745 35.4876 198.066 35.5723 198.473 35.5723C198.913 35.5723 199.344 35.4622 199.768 35.2422C200.191 35.0052 200.597 34.7005 200.986 34.3281C201.376 33.9557 201.74 33.5326 202.078 33.0586C202.434 32.5846 202.755 32.1107 203.043 31.6367C203.331 31.1628 203.585 30.7142 203.805 30.291C204.025 29.8509 204.202 29.4785 204.338 29.1738C204.423 28.9876 204.541 28.8438 204.693 28.7422C204.846 28.6406 205.015 28.5898 205.201 28.5898C205.489 28.5898 205.717 28.6999 205.887 28.9199C206.073 29.123 206.166 29.3431 206.166 29.5801C206.166 29.6986 206.141 29.8171 206.09 29.9355C206.022 30.071 205.887 30.3587 205.684 30.7988C205.48 31.222 205.21 31.7129 204.871 32.2715C204.533 32.8132 204.135 33.3887 203.678 33.998C203.238 34.6074 202.747 35.1745 202.205 35.6992C201.663 36.207 201.079 36.6302 200.453 36.9688C199.827 37.2904 199.167 37.4512 198.473 37.4512C197.728 37.4512 197.118 37.3158 196.645 37.0449C196.187 36.791 195.815 36.444 195.527 36.0039C195.257 35.5638 195.07 35.056 194.969 34.4805C194.867 33.9049 194.816 33.304 194.816 32.6777C194.816 31.8483 194.859 31.0866 194.943 30.3926C195.028 29.6816 195.07 29.1315 195.07 28.7422C195.07 28.319 195.028 27.9974 194.943 27.7773C194.876 27.5573 194.783 27.4049 194.664 27.3203C194.562 27.2188 194.461 27.168 194.359 27.168C194.258 27.151 194.182 27.1426 194.131 27.1426C193.725 27.1426 193.293 27.3711 192.836 27.8281C192.396 28.2682 191.939 28.8607 191.465 29.6055C190.991 30.3503 190.5 31.1966 189.992 32.1445C189.501 33.0924 189.002 34.0573 188.494 35.0391C188.206 35.5807 187.961 36.0293 187.758 36.3848C187.572 36.7402 187.385 37.0195 187.199 37.2227C187.03 37.4258 186.861 37.5697 186.691 37.6543C186.522 37.7389 186.336 37.7813 186.133 37.7813C185.693 37.7813 185.354 37.6289 185.117 37.3242C184.897 37.0195 184.787 36.6217 184.787 36.1309C184.787 35.877 184.796 35.5384 184.812 35.1152C184.829 34.6921 184.846 34.2266 184.863 33.7188C184.88 33.2109 184.906 32.6862 184.939 32.1445C184.973 31.6029 184.999 31.0866 185.016 30.5957C185.033 30.0879 185.049 29.6393 185.066 29.25C185.083 28.8607 185.092 28.5645 185.092 28.3613C185.092 27.9212 185.016 27.6081 184.863 27.4219C184.711 27.2188 184.533 27.1172 184.33 27.1172C184.144 27.1172 183.932 27.1849 183.695 27.3203C183.475 27.4557 183.213 27.7181 182.908 28.1074C182.671 28.4121 182.367 28.8607 181.994 29.4531C181.639 30.0286 181.258 30.6719 180.852 31.3828C180.445 32.0938 180.039 32.8216 179.633 33.5664C179.243 34.3112 178.905 34.9798 178.617 35.5723C178.262 36.2832 177.906 36.7656 177.551 37.0195C177.195 37.2904 176.848 37.4258 176.51 37.4258C176.019 37.4258 175.655 37.2819 175.418 36.9941C175.181 36.6895 175.062 36.2917 175.062 35.8008C175.062 35.75 175.071 35.4453 175.088 34.8867C175.122 34.3281 175.156 33.651 175.189 32.8555C175.223 32.043 175.257 31.1797 175.291 30.2656C175.342 29.3516 175.384 28.4967 175.418 27.7012C175.435 27.278 175.418 26.8887 175.367 26.5332C175.316 26.1777 175.249 25.9661 175.164 25.8984C175.029 25.9323 174.758 26.2454 174.352 26.8379C173.962 27.4303 173.463 28.4629 172.854 29.9355C172.769 30.1217 172.642 30.2656 172.473 30.3672C172.303 30.4688 172.126 30.5195 171.939 30.5195C171.652 30.5195 171.423 30.4264 171.254 30.2402C171.085 30.0371 171 29.8086 171 29.5547C171 29.4362 171.025 29.3092 171.076 29.1738C171.838 27.3626 172.566 26.0339 173.26 25.1875C173.954 24.3242 174.631 23.8926 175.291 23.8926C175.68 23.8926 176.002 23.9857 176.256 24.1719C176.527 24.3411 176.738 24.5697 176.891 24.8574C177.043 25.1283 177.153 25.4414 177.221 25.7969C177.288 26.1523 177.322 26.4993 177.322 26.8379C177.322 28.3444 177.28 29.724 177.195 30.9766C177.128 32.2292 177.051 33.4902 176.967 34.7598Z" fill="#AD5207"></path><path d="M208.502 17.0879C208.502 17.7311 208.273 18.2813 207.816 18.7383C207.376 19.1784 206.835 19.3984 206.191 19.3984C205.548 19.3984 204.998 19.1784 204.541 18.7383C204.101 18.2813 203.881 17.7311 203.881 17.0879C203.881 16.7663 203.94 16.4701 204.059 16.1992C204.177 15.9115 204.338 15.666 204.541 15.4629C204.761 15.2428 205.007 15.0736 205.277 14.9551C205.565 14.8366 205.87 14.7773 206.191 14.7773C206.513 14.7773 206.809 14.8366 207.08 14.9551C207.368 15.0736 207.613 15.2428 207.816 15.4629C208.036 15.666 208.206 15.9115 208.324 16.1992C208.443 16.4701 208.502 16.7663 208.502 17.0879ZM204.389 31.9668C204.389 29.5293 204.541 27.1003 204.846 24.6797C204.88 24.4427 204.981 24.2396 205.15 24.0703C205.337 23.8841 205.574 23.791 205.861 23.791C206.115 23.791 206.327 23.8926 206.496 24.0957C206.665 24.2819 206.75 24.502 206.75 24.7559C206.75 24.8574 206.725 25.1621 206.674 25.6699C206.64 26.1777 206.589 26.7871 206.521 27.498C206.471 28.1921 206.42 28.9368 206.369 29.7324C206.335 30.5111 206.318 31.2305 206.318 31.8906C206.318 32.7878 206.403 33.5156 206.572 34.0742C206.758 34.6159 206.987 35.0391 207.258 35.3438C207.546 35.6484 207.842 35.8516 208.146 35.9531C208.468 36.0547 208.773 36.1055 209.061 36.1055C209.535 36.1055 210.025 35.9362 210.533 35.5977C211.041 35.2591 211.557 34.7852 212.082 34.1758C212.624 33.5664 213.165 32.8385 213.707 31.9922C214.249 31.1289 214.782 30.1725 215.307 29.123C215.391 28.9538 215.51 28.8268 215.662 28.7422C215.814 28.6406 215.984 28.5898 216.17 28.5898C216.441 28.5898 216.661 28.6914 216.83 28.8945C217.016 29.0977 217.109 29.3177 217.109 29.5547C217.109 29.724 217.076 29.8678 217.008 29.9863C216.805 30.3757 216.551 30.8496 216.246 31.4082C215.941 31.9668 215.594 32.5423 215.205 33.1348C214.816 33.7272 214.384 34.3197 213.91 34.9121C213.453 35.4876 212.962 36.0124 212.437 36.4863C211.913 36.9434 211.363 37.3158 210.787 37.6035C210.212 37.8913 209.628 38.0352 209.035 38.0352C208.273 38.0352 207.605 37.8743 207.029 37.5527C206.454 37.2311 205.963 36.7995 205.557 36.2578C205.167 35.7161 204.871 35.0814 204.668 34.3535C204.482 33.6087 204.389 32.8132 204.389 31.9668ZM207.08 17.0879C207.08 16.8509 206.987 16.6478 206.801 16.4785C206.632 16.2923 206.428 16.1992 206.191 16.1992C205.954 16.1992 205.751 16.2923 205.582 16.4785C205.413 16.6478 205.328 16.8509 205.328 17.0879C205.328 17.3249 205.413 17.528 205.582 17.6973C205.751 17.8665 205.954 17.9512 206.191 17.9512C206.428 17.9512 206.632 17.8665 206.801 17.6973C206.987 17.528 207.08 17.3249 207.08 17.0879Z" fill="#AD5207"></path><path d="M218.1 27.625C217.998 27.8958 217.871 28.2005 217.719 28.5391C217.583 28.8776 217.423 29.2331 217.236 29.6055C217.084 29.8932 216.923 30.1217 216.754 30.291C216.602 30.4434 216.398 30.5195 216.145 30.5195C215.857 30.5195 215.628 30.4349 215.459 30.2656C215.29 30.0794 215.205 29.8678 215.205 29.6309C215.205 29.5462 215.214 29.4785 215.23 29.4277C215.247 29.36 215.29 29.2585 215.357 29.123C215.798 28.2767 216.119 27.5404 216.322 26.9141C216.542 26.2708 216.72 25.6022 216.855 24.9082C216.737 24.5189 216.652 24.1888 216.602 23.918C216.551 23.6471 216.525 23.3678 216.525 23.0801C216.525 22.5215 216.644 22.0729 216.881 21.7344C217.118 21.3789 217.448 21.2012 217.871 21.2012C218.26 21.2012 218.565 21.3704 218.785 21.709C219.022 22.0475 219.141 22.4622 219.141 22.9531C219.141 23.224 219.115 23.4948 219.064 23.7656C219.014 24.0365 218.946 24.375 218.861 24.7813C219.251 25.7461 219.64 26.6009 220.029 27.3457C220.419 28.0905 220.766 28.776 221.07 29.4023C221.375 30.0117 221.62 30.5872 221.807 31.1289C222.01 31.6706 222.111 32.2122 222.111 32.7539C222.111 33.4648 221.967 34.1419 221.68 34.7852C221.392 35.4284 220.918 35.9701 220.258 36.4102C220.342 36.4271 220.427 36.4355 220.512 36.4355C220.596 36.4355 220.681 36.4355 220.766 36.4355C221.73 36.4355 222.619 36.2155 223.432 35.7754C224.244 35.3353 224.972 34.7682 225.615 34.0742C226.275 33.3633 226.859 32.5846 227.367 31.7383C227.875 30.875 228.315 30.0202 228.687 29.1738C228.857 28.7845 229.094 28.5898 229.398 28.5898C229.686 28.5898 229.906 28.6914 230.059 28.8945C230.228 29.0977 230.312 29.3177 230.312 29.5547C230.312 29.6901 230.287 29.8171 230.236 29.9355C230.05 30.3926 229.805 30.9173 229.5 31.5098C229.212 32.0853 228.857 32.6862 228.434 33.3125C228.027 33.9219 227.553 34.5228 227.012 35.1152C226.47 35.7077 225.861 36.2409 225.184 36.7148C224.523 37.1719 223.796 37.5358 223 37.8066C222.204 38.0944 221.333 38.2383 220.385 38.2383C219.251 38.2383 218.193 38.0352 217.211 37.6289C216.246 37.2396 215.459 36.5879 214.85 35.6738C214.748 35.5215 214.697 35.3607 214.697 35.1914C214.697 34.9375 214.79 34.7174 214.977 34.5313C215.18 34.3281 215.408 34.2266 215.662 34.2266C215.933 34.2266 216.161 34.3197 216.348 34.5059C216.365 34.5397 216.424 34.599 216.525 34.6836C216.627 34.7513 216.745 34.8359 216.881 34.9375C217.033 35.0221 217.202 35.0983 217.389 35.166C217.592 35.2337 217.795 35.2676 217.998 35.2676C218.404 35.2676 218.743 35.1829 219.014 35.0137C219.301 34.8444 219.53 34.6413 219.699 34.4043C219.868 34.1504 219.987 33.888 220.055 33.6172C220.139 33.3294 220.182 33.084 220.182 32.8809C220.182 32.4577 220.114 32.0345 219.979 31.6113C219.843 31.1882 219.665 30.765 219.445 30.3418C219.242 29.9186 219.014 29.487 218.76 29.0469C218.523 28.5898 218.303 28.1159 218.1 27.625Z" fill="#AD5207"></path><path d="M230.49 34.8613C230.761 34.2858 231.074 33.668 231.43 33.0078C231.785 32.3307 232.166 31.6452 232.572 30.9512C232.979 30.2402 233.41 29.5378 233.867 28.8438C234.324 28.1497 234.798 27.498 235.289 26.8887C235.78 26.2962 236.271 25.873 236.762 25.6191C237.27 25.3483 237.743 25.2129 238.184 25.2129C238.624 25.2129 239.005 25.306 239.326 25.4922C239.665 25.6615 239.936 25.8984 240.139 26.2031C240.359 26.5078 240.52 26.8633 240.621 27.2695C240.74 27.6758 240.799 28.1159 240.799 28.5898C240.799 28.9792 240.757 29.5039 240.672 30.1641C240.604 30.8073 240.57 31.4844 240.57 32.1953C240.57 32.6016 240.587 33.0078 240.621 33.4141C240.672 33.8034 240.748 34.1589 240.85 34.4805C240.968 34.7852 241.137 35.0391 241.357 35.2422C241.577 35.4284 241.865 35.5215 242.221 35.5215C242.627 35.5215 243.033 35.4115 243.439 35.1914C243.846 34.9544 244.243 34.6497 244.633 34.2773C245.022 33.888 245.395 33.4648 245.75 33.0078C246.105 32.5339 246.427 32.0684 246.715 31.6113C247.003 31.1374 247.257 30.6888 247.477 30.2656C247.697 29.8255 247.874 29.4616 248.01 29.1738C248.179 28.7845 248.475 28.5898 248.898 28.5898C249.186 28.5898 249.415 28.6914 249.584 28.8945C249.753 29.0977 249.838 29.3177 249.838 29.5547C249.838 29.6901 249.812 29.8171 249.762 29.9355C249.694 30.071 249.559 30.3503 249.355 30.7734C249.169 31.1966 248.907 31.6875 248.568 32.2461C248.247 32.8047 247.866 33.3887 247.426 33.998C246.986 34.6074 246.495 35.1745 245.953 35.6992C245.428 36.207 244.853 36.6302 244.227 36.9688C243.617 37.2904 242.974 37.4512 242.297 37.4512C241.518 37.4512 240.892 37.2904 240.418 36.9688C239.944 36.6302 239.572 36.207 239.301 35.6992C239.047 35.1914 238.869 34.6243 238.768 33.998C238.683 33.3717 238.641 32.7624 238.641 32.1699C238.641 31.8652 238.649 31.5436 238.666 31.2051C238.7 30.8496 238.734 30.5026 238.768 30.1641C238.801 29.8255 238.827 29.5124 238.844 29.2246C238.878 28.9199 238.895 28.666 238.895 28.4629C238.895 27.9382 238.818 27.5827 238.666 27.3965C238.531 27.2103 238.37 27.1172 238.184 27.1172C237.913 27.1172 237.6 27.278 237.244 27.5996C236.906 27.9043 236.542 28.3105 236.152 28.8184C235.78 29.3262 235.399 29.9017 235.01 30.5449C234.637 31.1712 234.273 31.7975 233.918 32.4238C233.562 33.0501 233.241 33.651 232.953 34.2266C232.665 34.7852 232.428 35.2507 232.242 35.623C231.887 36.334 231.523 36.8079 231.15 37.0449C230.795 37.2988 230.473 37.4258 230.186 37.4258C229.661 37.4258 229.255 37.2227 228.967 36.8164C228.696 36.3932 228.561 35.8854 228.561 35.293V33.6934C228.561 30.4941 228.561 27.4473 228.561 24.5527C228.577 21.6413 228.62 18.9414 228.687 16.4531C228.772 13.9479 228.899 11.6882 229.068 9.67383C229.255 7.64258 229.525 5.91602 229.881 4.49414C230.236 3.05534 230.685 1.94661 231.227 1.16797C231.785 0.389323 232.479 0 233.309 0C234.02 0 234.62 0.194661 235.111 0.583984C235.602 0.973307 236 1.50651 236.305 2.18359C236.609 2.84375 236.829 3.6224 236.965 4.51953C237.1 5.39974 237.168 6.33073 237.168 7.3125C237.168 9.3099 236.982 11.2734 236.609 13.2031C236.254 15.1159 235.771 16.9863 235.162 18.8145C234.553 20.6426 233.842 22.4284 233.029 24.1719C232.217 25.8984 231.362 27.5827 230.465 29.2246C230.465 29.5293 230.465 29.8932 230.465 30.3164C230.465 30.7396 230.465 31.1628 230.465 31.5859C230.465 32.0091 230.465 32.4069 230.465 32.7793C230.465 33.1517 230.465 33.4479 230.465 33.668L230.49 34.8613ZM230.49 25.4922C231.201 23.9349 231.844 22.4199 232.42 20.9473C233.012 19.4577 233.512 17.9766 233.918 16.5039C234.341 15.0313 234.671 13.5417 234.908 12.0352C235.145 10.5117 235.264 8.92904 235.264 7.28711C235.264 7.01628 235.247 6.58464 235.213 5.99219C235.196 5.39974 235.12 4.79883 234.984 4.18945C234.866 3.58008 234.671 3.04688 234.4 2.58984C234.146 2.13281 233.783 1.9043 233.309 1.9043C232.936 1.9043 232.615 2.1582 232.344 2.66602C232.073 3.1569 231.836 3.83398 231.633 4.69727C231.43 5.54362 231.26 6.53385 231.125 7.66797C230.99 8.80208 230.88 10.0039 230.795 11.2734C230.71 12.543 230.643 13.8464 230.592 15.1836C230.558 16.5208 230.533 17.8242 230.516 19.0938C230.499 20.3464 230.49 21.5228 230.49 22.623C230.49 23.7233 230.49 24.6797 230.49 25.4922Z" fill="#AD5207"></path><path d="M5.9668 34.7598C6.2207 34.252 6.54232 33.6257 6.93164 32.8809C7.33789 32.1191 7.7526 31.3574 8.17578 30.5957C8.61589 29.834 9.03906 29.1146 9.44531 28.4375C9.86849 27.7604 10.224 27.2441 10.5117 26.8887C11.0026 26.2962 11.5104 25.873 12.0352 25.6191C12.5599 25.3652 13.0423 25.2383 13.4824 25.2383C13.9225 25.2383 14.2949 25.3314 14.5996 25.5176C14.9212 25.7038 15.1836 25.9577 15.3867 26.2793C15.5898 26.584 15.7422 26.9479 15.8437 27.3711C15.9453 27.7773 15.9961 28.2174 15.9961 28.6914C15.9961 28.9622 15.9792 29.3177 15.9453 29.7578C15.9284 30.1979 15.903 30.6719 15.8691 31.1797C15.8522 31.6875 15.8268 32.2122 15.793 32.7539C15.776 33.2956 15.7591 33.8034 15.7422 34.2773C15.9961 33.7695 16.2839 33.2109 16.6055 32.6016C16.9271 31.9753 17.2487 31.3574 17.5703 30.748C17.9089 30.1387 18.2305 29.5716 18.5352 29.0469C18.8398 28.5052 19.1191 28.0651 19.373 27.7266C20.1009 26.7279 20.778 26.0592 21.4043 25.7207C22.0475 25.3822 22.6146 25.2129 23.1055 25.2129C23.681 25.2129 24.1549 25.3229 24.5273 25.543C24.8997 25.7461 25.1875 26.0169 25.3906 26.3555C25.6107 26.6771 25.763 27.041 25.8477 27.4473C25.9323 27.8535 25.9746 28.2428 25.9746 28.6152C25.9746 29.1908 25.9323 29.7917 25.8477 30.418C25.763 31.0443 25.7207 31.7891 25.7207 32.6523C25.7207 33.0078 25.7376 33.3633 25.7715 33.7188C25.8053 34.0742 25.873 34.3874 25.9746 34.6582C26.0931 34.929 26.2708 35.1491 26.5078 35.3184C26.7448 35.4876 27.0664 35.5723 27.4727 35.5723C27.9128 35.5723 28.3444 35.4622 28.7676 35.2422C29.1908 35.0052 29.597 34.7005 29.9863 34.3281C30.3757 33.9557 30.7396 33.5326 31.0781 33.0586C31.4336 32.5846 31.7552 32.1107 32.043 31.6367C32.3307 31.1628 32.5846 30.7142 32.8047 30.291C33.0247 29.8509 33.2025 29.4785 33.3379 29.1738C33.4225 28.9876 33.541 28.8438 33.6934 28.7422C33.8457 28.6406 34.015 28.5898 34.2012 28.5898C34.4889 28.5898 34.7174 28.6999 34.8867 28.9199C35.0729 29.123 35.166 29.3431 35.166 29.5801C35.166 29.6986 35.1406 29.8171 35.0898 29.9355C35.0221 30.071 34.8867 30.3587 34.6836 30.7988C34.4805 31.222 34.2096 31.7129 33.8711 32.2715C33.5326 32.8132 33.1348 33.3887 32.6777 33.998C32.2376 34.6074 31.7467 35.1745 31.2051 35.6992C30.6634 36.207 30.0794 36.6302 29.4531 36.9688C28.8268 37.2904 28.1667 37.4512 27.4727 37.4512C26.7279 37.4512 26.1185 37.3158 25.6445 37.0449C25.1875 36.791 24.8151 36.444 24.5273 36.0039C24.2565 35.5638 24.0703 35.056 23.9687 34.4805C23.8672 33.9049 23.8164 33.304 23.8164 32.6777C23.8164 31.8483 23.8587 31.0866 23.9434 30.3926C24.028 29.6816 24.0703 29.1315 24.0703 28.7422C24.0703 28.319 24.028 27.9974 23.9434 27.7773C23.8757 27.5573 23.7826 27.4049 23.6641 27.3203C23.5625 27.2188 23.4609 27.168 23.3594 27.168C23.2578 27.151 23.1816 27.1426 23.1309 27.1426C22.7246 27.1426 22.293 27.3711 21.8359 27.8281C21.3958 28.2682 20.9388 28.8607 20.4648 29.6055C19.9909 30.3503 19.5 31.1966 18.9922 32.1445C18.5013 33.0924 18.002 34.0573 17.4941 35.0391C17.2064 35.5807 16.9609 36.0293 16.7578 36.3848C16.5716 36.7402 16.3854 37.0195 16.1992 37.2227C16.0299 37.4258 15.8607 37.5697 15.6914 37.6543C15.5221 37.7389 15.3359 37.7813 15.1328 37.7813C14.6927 37.7813 14.3542 37.6289 14.1172 37.3242C13.8971 37.0195 13.7871 36.6217 13.7871 36.1309C13.7871 35.877 13.7956 35.5384 13.8125 35.1152C13.8294 34.6921 13.8464 34.2266 13.8633 33.7188C13.8802 33.2109 13.9056 32.6862 13.9395 32.1445C13.9733 31.6029 13.9987 31.0866 14.0156 30.5957C14.0326 30.0879 14.0495 29.6393 14.0664 29.25C14.0833 28.8607 14.0918 28.5645 14.0918 28.3613C14.0918 27.9212 14.0156 27.6081 13.8633 27.4219C13.7109 27.2188 13.5332 27.1172 13.3301 27.1172C13.1439 27.1172 12.9323 27.1849 12.6953 27.3203C12.4753 27.4557 12.2129 27.7181 11.9082 28.1074C11.6712 28.4121 11.3665 28.8607 10.9941 29.4531C10.6387 30.0286 10.2578 30.6719 9.85156 31.3828C9.44531 32.0938 9.03906 32.8216 8.63281 33.5664C8.24349 34.3112 7.90495 34.9798 7.61719 35.5723C7.26172 36.2832 6.90625 36.7656 6.55078 37.0195C6.19531 37.2904 5.84831 37.4258 5.50977 37.4258C5.01888 37.4258 4.65495 37.2819 4.41797 36.9941C4.18099 36.6895 4.0625 36.2917 4.0625 35.8008C4.0625 35.75 4.07096 35.4453 4.08789 34.8867C4.12174 34.3281 4.1556 33.651 4.18945 32.8555C4.22331 32.043 4.25716 31.1797 4.29102 30.2656C4.3418 29.3516 4.38411 28.4967 4.41797 27.7012C4.4349 27.278 4.41797 26.8887 4.36719 26.5332C4.31641 26.1777 4.2487 25.9661 4.16406 25.8984C4.02865 25.9323 3.75781 26.2454 3.35156 26.8379C2.96224 27.4303 2.46289 28.4629 1.85352 29.9355C1.76888 30.1217 1.64193 30.2656 1.47266 30.3672C1.30339 30.4688 1.12565 30.5195 0.939453 30.5195C0.651693 30.5195 0.423177 30.4264 0.253906 30.2402C0.0846354 30.0371 0 29.8086 0 29.5547C0 29.4362 0.0253906 29.3092 0.0761719 29.1738C0.837891 27.3626 1.56576 26.0339 2.25977 25.1875C2.95378 24.3242 3.63086 23.8926 4.29102 23.8926C4.68034 23.8926 5.00195 23.9857 5.25586 24.1719C5.52669 24.3411 5.73828 24.5697 5.89062 24.8574C6.04297 25.1283 6.15299 25.4414 6.2207 25.7969C6.28841 26.1523 6.32227 26.4993 6.32227 26.8379C6.32227 28.3444 6.27995 29.724 6.19531 30.9766C6.1276 32.2292 6.05143 33.4902 5.9668 34.7598Z" fill="#AD5207"></path><path d="M37.502 17.0879C37.502 17.7311 37.2734 18.2813 36.8164 18.7383C36.3763 19.1784 35.8346 19.3984 35.1914 19.3984C34.5482 19.3984 33.998 19.1784 33.541 18.7383C33.1009 18.2813 32.8809 17.7311 32.8809 17.0879C32.8809 16.7663 32.9401 16.4701 33.0586 16.1992C33.1771 15.9115 33.3379 15.666 33.541 15.4629C33.7611 15.2428 34.0065 15.0736 34.2773 14.9551C34.5651 14.8366 34.8698 14.7773 35.1914 14.7773C35.513 14.7773 35.8092 14.8366 36.0801 14.9551C36.3678 15.0736 36.6133 15.2428 36.8164 15.4629C37.0365 15.666 37.2057 15.9115 37.3242 16.1992C37.4427 16.4701 37.502 16.7663 37.502 17.0879ZM33.3887 31.9668C33.3887 29.5293 33.541 27.1003 33.8457 24.6797C33.8796 24.4427 33.9811 24.2396 34.1504 24.0703C34.3366 23.8841 34.5736 23.791 34.8613 23.791C35.1152 23.791 35.3268 23.8926 35.4961 24.0957C35.6654 24.2819 35.75 24.502 35.75 24.7559C35.75 24.8574 35.7246 25.1621 35.6738 25.6699C35.64 26.1777 35.5892 26.7871 35.5215 27.498C35.4707 28.1921 35.4199 28.9368 35.3691 29.7324C35.3353 30.5111 35.3184 31.2305 35.3184 31.8906C35.3184 32.7878 35.403 33.5156 35.5723 34.0742C35.7585 34.6159 35.987 35.0391 36.2578 35.3438C36.5456 35.6484 36.8418 35.8516 37.1465 35.9531C37.4681 36.0547 37.7728 36.1055 38.0605 36.1055C38.5345 36.1055 39.0254 35.9362 39.5332 35.5977C40.041 35.2591 40.5573 34.7852 41.082 34.1758C41.6237 33.5664 42.1654 32.8385 42.707 31.9922C43.2487 31.1289 43.7819 30.1725 44.3066 29.123C44.3913 28.9538 44.5098 28.8268 44.6621 28.7422C44.8145 28.6406 44.9837 28.5898 45.1699 28.5898C45.4408 28.5898 45.6608 28.6914 45.8301 28.8945C46.0163 29.0977 46.1094 29.3177 46.1094 29.5547C46.1094 29.724 46.0755 29.8678 46.0078 29.9863C45.8047 30.3757 45.5508 30.8496 45.2461 31.4082C44.9414 31.9668 44.5944 32.5423 44.2051 33.1348C43.8158 33.7272 43.3841 34.3197 42.9102 34.9121C42.4531 35.4876 41.9622 36.0124 41.4375 36.4863C40.9128 36.9434 40.3626 37.3158 39.7871 37.6035C39.2116 37.8913 38.6276 38.0352 38.0352 38.0352C37.2734 38.0352 36.6048 37.8743 36.0293 37.5527C35.4538 37.2311 34.9629 36.7995 34.5566 36.2578C34.1673 35.7161 33.8711 35.0814 33.668 34.3535C33.4818 33.6087 33.3887 32.8132 33.3887 31.9668ZM36.0801 17.0879C36.0801 16.8509 35.987 16.6478 35.8008 16.4785C35.6315 16.2923 35.4284 16.1992 35.1914 16.1992C34.9544 16.1992 34.7513 16.2923 34.582 16.4785C34.4128 16.6478 34.3281 16.8509 34.3281 17.0879C34.3281 17.3249 34.4128 17.528 34.582 17.6973C34.7513 17.8665 34.9544 17.9512 35.1914 17.9512C35.4284 17.9512 35.6315 17.8665 35.8008 17.6973C35.987 17.528 36.0801 17.3249 36.0801 17.0879Z" fill="#AD5207"></path><path d="M47.0996 27.625C46.998 27.8958 46.8711 28.2005 46.7187 28.5391C46.5833 28.8776 46.4225 29.2331 46.2363 29.6055C46.084 29.8932 45.9232 30.1217 45.7539 30.291C45.6016 30.4434 45.3984 30.5195 45.1445 30.5195C44.8568 30.5195 44.6283 30.4349 44.459 30.2656C44.2897 30.0794 44.2051 29.8678 44.2051 29.6309C44.2051 29.5462 44.2135 29.4785 44.2305 29.4277C44.2474 29.36 44.2897 29.2585 44.3574 29.123C44.7975 28.2767 45.1191 27.5404 45.3223 26.9141C45.5423 26.2708 45.7201 25.6022 45.8555 24.9082C45.737 24.5189 45.6523 24.1888 45.6016 23.918C45.5508 23.6471 45.5254 23.3678 45.5254 23.0801C45.5254 22.5215 45.6439 22.0729 45.8809 21.7344C46.1178 21.3789 46.4479 21.2012 46.8711 21.2012C47.2604 21.2012 47.5651 21.3704 47.7852 21.709C48.0221 22.0475 48.1406 22.4622 48.1406 22.9531C48.1406 23.224 48.1152 23.4948 48.0645 23.7656C48.0137 24.0365 47.946 24.375 47.8613 24.7813C48.2507 25.7461 48.64 26.6009 49.0293 27.3457C49.4186 28.0905 49.7656 28.776 50.0703 29.4023C50.375 30.0117 50.6204 30.5872 50.8066 31.1289C51.0098 31.6706 51.1113 32.2122 51.1113 32.7539C51.1113 33.4648 50.9674 34.1419 50.6797 34.7852C50.3919 35.4284 49.918 35.9701 49.2578 36.4102C49.3424 36.4271 49.4271 36.4355 49.5117 36.4355C49.5964 36.4355 49.681 36.4355 49.7656 36.4355C50.7305 36.4355 51.6191 36.2155 52.4316 35.7754C53.2441 35.3353 53.972 34.7682 54.6152 34.0742C55.2754 33.3633 55.8594 32.5846 56.3672 31.7383C56.875 30.875 57.3151 30.0202 57.6875 29.1738C57.8568 28.7845 58.0937 28.5898 58.3984 28.5898C58.6862 28.5898 58.9062 28.6914 59.0586 28.8945C59.2279 29.0977 59.3125 29.3177 59.3125 29.5547C59.3125 29.6901 59.2871 29.8171 59.2363 29.9355C59.0501 30.3926 58.8047 30.9173 58.5 31.5098C58.2122 32.0853 57.8568 32.6862 57.4336 33.3125C57.0273 33.9219 56.5534 34.5228 56.0117 35.1152C55.4701 35.7077 54.8607 36.2409 54.1836 36.7148C53.5234 37.1719 52.7956 37.5358 52 37.8066C51.2044 38.0944 50.3327 38.2383 49.3848 38.2383C48.2507 38.2383 47.1927 38.0352 46.2109 37.6289C45.2461 37.2396 44.459 36.5879 43.8496 35.6738C43.748 35.5215 43.6973 35.3607 43.6973 35.1914C43.6973 34.9375 43.7904 34.7174 43.9766 34.5313C44.1797 34.3281 44.4082 34.2266 44.6621 34.2266C44.9329 34.2266 45.1615 34.3197 45.3477 34.5059C45.3646 34.5397 45.4238 34.599 45.5254 34.6836C45.627 34.7513 45.7454 34.8359 45.8809 34.9375C46.0332 35.0221 46.2025 35.0983 46.3887 35.166C46.5918 35.2337 46.7949 35.2676 46.998 35.2676C47.4043 35.2676 47.7428 35.1829 48.0137 35.0137C48.3014 34.8444 48.5299 34.6413 48.6992 34.4043C48.8685 34.1504 48.987 33.888 49.0547 33.6172C49.1393 33.3294 49.1816 33.084 49.1816 32.8809C49.1816 32.4577 49.1139 32.0345 48.9785 31.6113C48.8431 31.1882 48.6654 30.765 48.4453 30.3418C48.2422 29.9186 48.0137 29.487 47.7598 29.0469C47.5228 28.5898 47.3027 28.1159 47.0996 27.625Z" fill="#AD5207"></path><path d="M59.4902 34.8613C59.7611 34.2858 60.0742 33.668 60.4297 33.0078C60.7852 32.3307 61.166 31.6452 61.5723 30.9512C61.9785 30.2402 62.4102 29.5378 62.8672 28.8438C63.3242 28.1497 63.7982 27.498 64.2891 26.8887C64.7799 26.2962 65.2708 25.873 65.7617 25.6191C66.2695 25.3483 66.7435 25.2129 67.1836 25.2129C67.6237 25.2129 68.0046 25.306 68.3262 25.4922C68.6647 25.6615 68.9355 25.8984 69.1387 26.2031C69.3587 26.5078 69.5195 26.8633 69.6211 27.2695C69.7396 27.6758 69.7988 28.1159 69.7988 28.5898C69.7988 28.9792 69.7565 29.5039 69.6719 30.1641C69.6042 30.8073 69.5703 31.4844 69.5703 32.1953C69.5703 32.6016 69.5872 33.0078 69.6211 33.4141C69.6719 33.8034 69.748 34.1589 69.8496 34.4805C69.9681 34.7852 70.1374 35.0391 70.3574 35.2422C70.5775 35.4284 70.8652 35.5215 71.2207 35.5215C71.627 35.5215 72.0332 35.4115 72.4395 35.1914C72.8457 34.9544 73.2435 34.6497 73.6328 34.2773C74.0221 33.888 74.3945 33.4648 74.75 33.0078C75.1055 32.5339 75.4271 32.0684 75.7148 31.6113C76.0026 31.1374 76.2565 30.6888 76.4766 30.2656C76.6966 29.8255 76.8743 29.4616 77.0098 29.1738C77.179 28.7845 77.4753 28.5898 77.8984 28.5898C78.1862 28.5898 78.4147 28.6914 78.584 28.8945C78.7533 29.0977 78.8379 29.3177 78.8379 29.5547C78.8379 29.6901 78.8125 29.8171 78.7617 29.9355C78.694 30.071 78.5586 30.3503 78.3555 30.7734C78.1693 31.1966 77.9069 31.6875 77.5684 32.2461C77.2467 32.8047 76.8659 33.3887 76.4258 33.998C75.9857 34.6074 75.4948 35.1745 74.9531 35.6992C74.4284 36.207 73.8529 36.6302 73.2266 36.9688C72.6172 37.2904 71.974 37.4512 71.2969 37.4512C70.5182 37.4512 69.8919 37.2904 69.418 36.9688C68.944 36.6302 68.5716 36.207 68.3008 35.6992C68.0469 35.1914 67.8691 34.6243 67.7676 33.998C67.6829 33.3717 67.6406 32.7624 67.6406 32.1699C67.6406 31.8652 67.6491 31.5436 67.666 31.2051C67.6999 30.8496 67.7337 30.5026 67.7676 30.1641C67.8014 29.8255 67.8268 29.5124 67.8437 29.2246C67.8776 28.9199 67.8945 28.666 67.8945 28.4629C67.8945 27.9382 67.8184 27.5827 67.666 27.3965C67.5306 27.2103 67.3698 27.1172 67.1836 27.1172C66.9128 27.1172 66.5996 27.278 66.2441 27.5996C65.9056 27.9043 65.5417 28.3105 65.1523 28.8184C64.7799 29.3262 64.3991 29.9017 64.0098 30.5449C63.6374 31.1712 63.2734 31.7975 62.918 32.4238C62.5625 33.0501 62.2409 33.651 61.9531 34.2266C61.6654 34.7852 61.4284 35.2507 61.2422 35.623C60.8867 36.334 60.5228 36.8079 60.1504 37.0449C59.7949 37.2988 59.4733 37.4258 59.1855 37.4258C58.6608 37.4258 58.2546 37.2227 57.9668 36.8164C57.696 36.3932 57.5605 35.8854 57.5605 35.293L57.5605 33.6934C57.5605 30.4941 57.5605 27.4473 57.5605 24.5527C57.5775 21.6413 57.6198 18.9414 57.6875 16.4531C57.7721 13.9479 57.8991 11.6882 58.0684 9.67383C58.2546 7.64258 58.5254 5.91602 58.8809 4.49414C59.2363 3.05534 59.6849 1.94661 60.2266 1.16797C60.7852 0.389323 61.4792 0 62.3086 0C63.0195 0 63.6204 0.194661 64.1113 0.583984C64.6022 0.973307 65 1.50651 65.3047 2.18359C65.6094 2.84375 65.8294 3.6224 65.9648 4.51953C66.1003 5.39974 66.168 6.33073 66.168 7.3125C66.168 9.3099 65.9818 11.2734 65.6094 13.2031C65.2539 15.1159 64.7715 16.9863 64.1621 18.8145C63.5527 20.6426 62.8418 22.4284 62.0293 24.1719C61.2168 25.8984 60.362 27.5827 59.4648 29.2246C59.4648 29.5293 59.4648 29.8932 59.4648 30.3164C59.4648 30.7396 59.4648 31.1628 59.4648 31.5859C59.4648 32.0091 59.4648 32.4069 59.4648 32.7793C59.4648 33.1517 59.4648 33.4479 59.4648 33.668L59.4902 34.8613ZM59.4902 25.4922C60.2012 23.9349 60.8444 22.4199 61.4199 20.9473C62.0124 19.4577 62.5117 17.9766 62.918 16.5039C63.3411 15.0313 63.6712 13.5417 63.9082 12.0352C64.1452 10.5117 64.2637 8.92904 64.2637 7.28711C64.2637 7.01628 64.2467 6.58464 64.2129 5.99219C64.196 5.39974 64.1198 4.79883 63.9844 4.18945C63.8659 3.58008 63.6712 3.04688 63.4004 2.58984C63.1465 2.13281 62.7826 1.9043 62.3086 1.9043C61.9362 1.9043 61.6146 2.1582 61.3437 2.66602C61.0729 3.1569 60.8359 3.83398 60.6328 4.69727C60.4297 5.54362 60.2604 6.53385 60.125 7.66797C59.9896 8.80208 59.8796 10.0039 59.7949 11.2734C59.7103 12.543 59.6426 13.8464 59.5918 15.1836C59.5579 16.5208 59.5326 17.8242 59.5156 19.0938C59.4987 20.3464 59.4902 21.5228 59.4902 22.623C59.4902 23.7233 59.4902 24.6797 59.4902 25.4922Z" fill="#AD5207"></path><path d="M136.687 14.293C141.057 14.293 144.6 18.1782 144.6 22.9709H128.775C128.775 18.1782 132.318 14.293 136.687 14.293Z" fill="#AD5207"></path><path d="M121.884 1.01953C129.919 1.01953 136.433 7.15438 136.433 14.7221V38.7942H107.336V14.7221C107.336 7.15438 113.849 1.01953 121.884 1.01953Z" fill="#AD5207"></path><circle r="5.10468" transform="matrix(-1 0 0 1 126.733 11.7375)" fill="white"></circle><circle r="3.06281" transform="matrix(-1 0 0 1 126.733 11.7386)" fill="black"></circle><rect x="107.336" y="34.1992" width="29.0967" height="4.59421" fill="white"></rect></svg>